<?xml version="1.0" encoding="UTF-8"?>
<svg version="1.1" xmlns="http://www.w3.org/2000/svg" width="512" height="512">
<path d="M0 0 C1.01790619 0.00215515 2.03581238 0.0043103 3.08456421 0.00653076 C17.69363523 0.05620146 32.02575853 0.30709809 46.375 3.3125 C47.34985352 3.51117676 48.32470703 3.70985352 49.32910156 3.91455078 C97.7109774 14.03517194 141.69928269 35.9516877 177.375 70.3125 C178.3640332 71.26068604 178.3640332 71.26068604 179.37304688 72.22802734 C188.86130305 81.37247479 197.6012044 90.66984009 205.375 101.3125 C206.23306152 102.46355017 207.09113451 103.61459177 207.94921875 104.765625 C213.98736829 112.95680614 219.34595521 121.47054105 224.375 130.3125 C224.73948242 130.94430176 225.10396484 131.57610352 225.47949219 132.22705078 C247.08534998 169.97532572 256.85198095 212.74189997 256.6875 255.9375 C256.68534485 256.95540619 256.6831897 257.97331238 256.68096924 259.02206421 C256.63129854 273.63113523 256.38040191 287.96325853 253.375 302.3125 C253.07698486 303.77478027 253.07698486 303.77478027 252.77294922 305.26660156 C242.65232806 353.6484774 220.7358123 397.63678269 186.375 433.3125 C185.74287598 433.97185547 185.11075195 434.63121094 184.45947266 435.31054688 C175.31502521 444.79880305 166.01765991 453.5387044 155.375 461.3125 C154.22394983 462.17056152 153.07290823 463.02863451 151.921875 463.88671875 C143.73224019 469.92427396 135.22961724 475.30707302 126.375 480.3125 C125.66778809 480.7146875 124.96057617 481.116875 124.23193359 481.53125 C101.09654164 494.5566741 75.92537591 503.30551461 49.9375 508.625 C49.21860596 508.77235596 48.49971191 508.91971191 47.7590332 509.0715332 C33.08339502 511.86090125 18.55831162 512.66142619 3.64770508 512.62817383 C0.70811513 512.6250221 -2.2304558 512.64854926 -5.16992188 512.67382812 C-18.54306192 512.71848737 -31.43916711 511.51301542 -44.625 509.3125 C-46.33055054 509.03031616 -46.33055054 509.03031616 -48.07055664 508.74243164 C-91.33802759 500.97044532 -132.38793216 480.98345309 -165.625 452.3125 C-166.37007813 451.67828125 -167.11515625 451.0440625 -167.8828125 450.390625 C-181.38779833 438.57948485 -194.05918743 425.82889772 -204.625 411.3125 C-205.48149066 410.16255169 -206.33826433 409.01281411 -207.1953125 407.86328125 C-213.23534209 399.67315742 -218.61867614 391.16870382 -223.625 382.3125 C-224.0271875 381.60528809 -224.429375 380.89807617 -224.84375 380.16943359 C-237.8691741 357.03404164 -246.61801461 331.86287591 -251.9375 305.875 C-252.08485596 305.15610596 -252.23221191 304.43721191 -252.3840332 303.6965332 C-255.35789088 288.05024391 -255.99800362 272.57681954 -255.9375 256.6875 C-255.93534485 255.66959381 -255.9331897 254.65168762 -255.93096924 253.60293579 C-255.88129854 238.99386477 -255.63040191 224.66174147 -252.625 210.3125 C-252.42632324 209.33764648 -252.22764648 208.36279297 -252.02294922 207.35839844 C-241.90232806 158.9765226 -219.9858123 114.98821731 -185.625 79.3125 C-184.99287598 78.65314453 -184.36075195 77.99378906 -183.70947266 77.31445312 C-174.56502521 67.82619695 -165.26765991 59.0862956 -154.625 51.3125 C-153.47394983 50.45443848 -152.32290823 49.59636549 -151.171875 48.73828125 C-142.98224019 42.70072604 -134.47961724 37.31792698 -125.625 32.3125 C-124.91778809 31.9103125 -124.21057617 31.508125 -123.48193359 31.09375 C-100.34654164 18.0683259 -75.17537591 9.31948539 -49.1875 4 C-48.46860596 3.85264404 -47.74971191 3.70528809 -47.0090332 3.5534668 C-31.36274391 0.57960912 -15.88931954 -0.06050362 0 0 Z " fill="#9AD963" transform="translate(255.625,-0.3125)"/>
<path d="M0 0 C1.53589445 1.55699682 1.53589445 1.55699682 3.16103458 3.53188324 C7.06819449 8.13342338 11.25856313 12.37164707 15.54844666 16.61486816 C16.38338876 17.44502017 17.21833086 18.27517217 18.07857424 19.13048029 C20.37545856 21.41332313 22.67460615 23.69385753 24.97468626 25.97347951 C27.46260289 28.44049589 29.94741998 30.91063016 32.4324646 33.38053894 C35.6248714 36.55313567 38.8175769 39.72542972 42.01152313 42.89647675 C49.91887388 50.74715556 57.81861006 58.60543632 65.71376038 66.46838379 C66.28575471 67.0380136 66.85774905 67.6076434 67.44707655 68.19453472 C70.37111869 71.1064908 73.29507866 74.01852937 76.21897995 76.93062687 C82.23186722 82.91922367 88.24497975 88.90759385 94.2590332 94.89501953 C94.86216949 95.49549183 95.46530578 96.09596414 96.08671892 96.71463257 C105.87651748 106.46040848 115.67889442 116.19344532 125.48544639 125.92235953 C135.56201546 135.91982427 145.62332411 145.93246416 155.67100245 155.95896482 C161.86546061 162.13933869 168.07178064 168.30729194 174.29384894 174.4598707 C178.55254475 178.67319084 182.7964893 182.90099946 187.02906 187.14056218 C189.47170717 189.58635286 191.92043441 192.02512546 194.38699913 194.44681358 C197.05694143 197.07485683 199.70122423 199.72628432 202.34043884 202.38513184 C203.12552651 203.14623465 203.91061417 203.90733747 204.71949238 204.691504 C210.4513586 210.54824644 210.4513586 210.54824644 210.51094913 215.35906219 C210.07067897 218.49635354 209.59771091 221.46215767 208.75 224.51171875 C208.47567139 225.5059082 208.20134277 226.50009766 207.91870117 227.52441406 C207.46394409 229.0901416 207.46394409 229.0901416 207 230.6875 C206.68458252 231.78674805 206.36916504 232.88599609 206.04418945 234.01855469 C195.72948663 269.15293196 178.79962006 301.1484733 155 329 C154.36320312 329.74894531 153.72640625 330.49789063 153.0703125 331.26953125 C141.25297532 344.76520621 128.51448412 357.43558025 114 368 C112.85005169 368.85649066 111.70031411 369.71326433 110.55078125 370.5703125 C102.36065742 376.61034209 93.85620382 381.99367614 85 387 C84.29278809 387.4021875 83.58557617 387.804375 82.85693359 388.21875 C56.91244483 402.8257197 28.3406517 412.15110016 -1 417 C-2.175625 417.19851563 -3.35125 417.39703125 -4.5625 417.6015625 C-6.04021753 417.74963039 -7.5197885 417.87938864 -9 418 C-10.16404358 418.12554481 -11.32808716 418.25108961 -12.52740479 418.3804388 C-19.85960647 418.9447174 -25.04770309 418.88926835 -30.94824219 413.9825592 C-32.86761059 412.1124192 -34.71238234 410.23277322 -36.546875 408.28540039 C-37.59012503 407.23926771 -38.63691902 406.19665929 -39.68692017 405.15730286 C-42.50388934 402.34912976 -45.26903149 399.4946332 -48.0267868 396.62844777 C-50.92613208 393.63222566 -53.87100944 390.68141995 -56.81103516 387.72520447 C-62.36126418 382.13055526 -67.86907351 376.49600976 -73.36285973 370.84598678 C-79.62190671 364.4134525 -85.93011822 358.03005514 -92.2414856 351.64891827 C-101.52694763 342.25731061 -110.7953337 332.84874214 -120.01414108 323.39166069 C-121.01310943 322.36729604 -122.01289709 321.34372968 -123.01353836 320.32099915 C-124.372679 318.93123646 -125.72819985 317.53793643 -127.08349609 316.14442444 C-127.84439545 315.36366578 -128.6052948 314.58290712 -129.38925171 313.77848911 C-131 312 -131 312 -131 311 C-119.12 311 -107.24 311 -95 311 C-94.34 309.02 -93.68 307.04 -93 305 C-91.44921875 302.953125 -91.44921875 302.953125 -89.6875 301.25 C-89.11386719 300.67765625 -88.54023438 300.1053125 -87.94921875 299.515625 C-82.85875791 295.55751116 -77.53959045 295.44950968 -71.296875 295.5625 C-66.15257425 296.24515602 -62.56659446 298.26622143 -59 302 C-58.76553665 302.6333728 -58.5310733 303.26674561 -58.289505 303.91931152 C-57.181796 306.60630859 -56.2147962 308.08921606 -54 310 C-48.5401692 311.24403399 -43.11837957 311.07182852 -37.54296875 311 C-35.91341721 311.00752105 -34.28387842 311.01855723 -32.65437317 311.03295898 C-28.37461392 311.06136599 -24.09635226 311.04212172 -19.81665039 311.01287842 C-15.44602724 310.99146971 -11.07567368 311.01522585 -6.70507812 311.03515625 C1.86366104 311.06758665 10.43134525 311.0496681 19 311 C19.29277832 310.0522168 19.58555664 309.10443359 19.88720703 308.12792969 C21.09004986 304.74688047 22.14424773 303.49643017 24.875 301.25 C25.55304688 300.67765625 26.23109375 300.1053125 26.9296875 299.515625 C32.7067927 295.28634798 37.98069239 295.28724254 45 296 C51.21676686 297.72458483 55.45241446 301.70931014 59 307 C59.33 307.99 59.66 308.98 60 310 C74.19 310.33 88.38 310.66 103 311 C103 301.1 103 291.2 103 281 C33.7 281 -35.6 281 -107 281 C-113 246 -113 246 -113 241 C-50.63 241 11.74 241 76 241 C76.33 238.36 76.66 235.72 77 233 C77.35313863 231.24911188 77.73811273 229.50414443 78.1640625 227.76953125 C78.39536865 226.81723633 78.6266748 225.86494141 78.86499023 224.88378906 C79.11579346 223.87026367 79.36659668 222.85673828 79.625 221.8125 C80.17060022 219.5742254 80.716172 217.33594388 81.26171875 215.09765625 C81.54708496 213.93379395 81.83245117 212.76993164 82.12646484 211.57080078 C83.57874738 205.63422046 85.00633194 199.69169855 86.4375 193.75 C88.2167629 186.37518402 89.99907147 179.00112612 91.7890625 171.62890625 C92.38045008 169.19016278 92.97159733 166.75136101 93.5625 164.3125 C93.85157227 163.11971436 94.14064453 161.92692871 94.43847656 160.69799805 C96.66271486 151.48320698 98.80597278 142.25101198 100.87133789 132.99926758 C102.63590525 125.21169496 104.79563782 117.71526764 107 110 C41.66 110 -23.68 110 -91 110 C-96.62847534 96.49165919 -96.62847534 96.49165919 -98.40356445 91.65234375 C-98.80360184 90.56501953 -99.20363922 89.47769531 -99.61579895 88.35742188 C-100.02746811 87.22884766 -100.43913727 86.10027344 -100.86328125 84.9375 C-101.30012741 83.74318359 -101.73697357 82.54886719 -102.1870575 81.31835938 C-103.1002395 78.81807533 -104.01213409 76.31736304 -104.92211914 73.81591797 C-106.08706459 70.61496209 -107.26055444 67.41720846 -108.4360323 64.22010803 C-109.56331681 61.14881681 -110.68146728 58.07420321 -111.80078125 55 C-112.43346672 53.2828479 -112.43346672 53.2828479 -113.07893372 51.53100586 C-113.4632103 50.46889893 -113.84748688 49.40679199 -114.2434082 48.3125 C-114.75373344 46.91451172 -114.75373344 46.91451172 -115.27436829 45.48828125 C-116 43 -116 43 -116 39 C-114.77337646 38.55946289 -113.54675293 38.11892578 -112.28295898 37.66503906 C-86.73506276 28.4874942 -61.20050633 19.27405695 -35.6875 10 C-34.48197479 9.5620813 -33.27644958 9.1241626 -32.03439331 8.67297363 C-28.60983053 7.42874266 -25.18569529 6.1833432 -21.76171875 4.9375 C-20.2337265 4.38240753 -20.2337265 4.38240753 -18.67486572 3.81610107 C-17.73374939 3.47331116 -16.79263306 3.13052124 -15.82299805 2.77734375 C-15.00784225 2.48077881 -14.19268646 2.18421387 -13.35282898 1.87866211 C-11.68067497 1.25419752 -10.02346523 0.58905959 -8.37825012 -0.10327148 C-4.98179877 -1.38391676 -3.4367785 -1.23724026 0 0 Z " fill="#6ABF48" transform="translate(297,93)"/>
<path d="M0 0 C28.38 0 56.76 0 86 0 C87.98 11.22 89.96 22.44 92 34 C93.8619905 44.48742269 93.8619905 44.48742269 95.72802734 54.97412109 C96 57 96 57 96 61 C176.52 61 257.04 61 340 61 C338.00891829 70.29171466 335.94782399 79.52581345 333.6875 88.75 C331.45389232 97.92297135 329.2760034 107.10531054 327.1875 116.3125 C324.22829685 129.31493494 320.97122666 142.24104578 317.69018555 155.1652832 C314.59639113 167.41162982 311.80171088 179.67247214 309 192 C246.63 192 184.26 192 120 192 C121.98 203.55 123.96 215.1 126 227 C126 228.65 126 230.3 126 232 C195.3 232 264.6 232 336 232 C336 241.9 336 251.8 336 262 C329.9821127 262.20707259 323.97662528 262.38598027 317.95800781 262.49438477 C315.91298509 262.53956701 313.86825188 262.60092981 311.82421875 262.67895508 C308.87948281 262.78852332 305.93859387 262.83924086 302.9921875 262.87890625 C302.0825827 262.92535782 301.17297791 262.97180939 300.23580933 263.01966858 C297.54380607 263.02179536 295.53501546 262.9186265 293 262 C291.00584581 259.86003448 289.65699673 257.75420063 288.27249146 255.18199158 C285.89478022 251.10483581 282.41464368 249.47154789 278 248 C270.99979389 247.2740527 265.41241321 247.31406789 259.6171875 251.5703125 C256.14890861 254.6364721 254.00155191 257.88376498 252 262 C242.5859437 262.20876526 233.17268679 262.368558 223.75681877 262.46630955 C219.38424665 262.51323303 215.01326067 262.57684169 210.64160156 262.67895508 C206.42042668 262.77693349 202.20077432 262.83059408 197.97854996 262.85389519 C196.37001698 262.87049313 194.76156514 262.90290939 193.15368271 262.95157051 C180.50441399 263.31907391 180.50441399 263.31907391 176.76934814 260.04415894 C175.18798828 257.63647461 175.18798828 257.63647461 174.07839966 255.23692322 C172.54029503 252.04643449 170.45847718 250.50602101 167.41015625 248.80859375 C161.2907371 246.75556334 154.6590733 247.17810462 148.5625 249.0625 C144.17641746 252.37880631 141.03447858 256.44828213 138 261 C135.16272675 261.26667539 132.54616955 261.34791234 129.7109375 261.29296875 C128.48330185 261.28660149 128.48330185 261.28660149 127.23086548 261.28010559 C124.61191164 261.26328679 121.99372198 261.22562974 119.375 261.1875 C117.6015736 261.17245726 115.82813516 261.15876814 114.0546875 261.14648438 C109.7028297 261.11337292 105.35154449 261.06156952 101 261 C98.32027599 248.01337429 95.91465953 235.00415831 93.73730469 221.92431641 C90.95994923 205.25740075 88.05829474 188.61755693 85 172 C82.00830462 155.73683953 79.18139321 139.45095574 76.43563843 123.14456177 C74.17296655 109.72022339 71.8097878 96.32015837 69.3125 82.9375 C67.14031969 71.28514969 65.02968688 59.62636956 63.0625 47.9375 C62.74502808 46.07242798 62.74502808 46.07242798 62.42114258 44.16967773 C62.23189209 43.02958252 62.0426416 41.8894873 61.84765625 40.71484375 C61.68273682 39.72605225 61.51781738 38.73726074 61.34790039 37.71850586 C61 35 61 35 61 30 C40.87 30 20.74 30 0 30 C0 20.1 0 10.2 0 0 Z " fill="#F2F4F8" transform="translate(64,142)"/>
<path d="M0 0 C44.22 0 88.44 0 134 0 C132.00891829 9.29171466 129.94782399 18.52581345 127.6875 27.75 C125.45389232 36.92297135 123.2760034 46.10531054 121.1875 55.3125 C118.22829685 68.31493494 114.97122666 81.24104578 111.69018555 94.1652832 C108.59639113 106.41162982 105.80171088 118.67247214 103 131 C40.63 131 -21.74 131 -86 131 C-86.495 131.99 -86.495 131.99 -87 133 C-87 132.01 -87 131.02 -87 130 C-58.29 130 -29.58 130 0 130 C0 87.1 0 44.2 0 0 Z " fill="#CED6E3" transform="translate(270,203)"/>
<path d="M0 0 C36.3 0 72.6 0 110 0 C110 42.9 110 85.8 110 130 C81.29 130 52.58 130 23 130 C17.47440981 100.27613553 12.12549416 70.52879856 6.91803741 40.74801636 C6.43596666 37.99123141 5.95356203 35.23450502 5.47113037 32.4777832 C4.70510126 28.09932406 3.94024908 23.72066096 3.17645073 19.34181213 C2.8907528 17.70418766 2.60482161 16.06660386 2.3186512 14.42906189 C1.92568347 12.17941961 1.53382923 9.92958643 1.14233398 7.6796875 C0.92077133 6.40851074 0.69920868 5.13733398 0.47093201 3.82763672 C0 1 0 1 0 0 Z " fill="#E0E5EE" transform="translate(160,203)"/>
<path d="M0 0 C10.5087516 28.40422351 20.98394073 56.81947815 31.25 85.3125 C31.63903503 86.39029724 32.02807007 87.46809448 32.42889404 88.57855225 C33.52258701 91.61014645 34.61343373 94.64274669 35.703125 97.67578125 C36.02505829 98.5679686 36.34699158 99.46015594 36.67868042 100.37937927 C36.97195221 101.19818069 37.265224 102.01698212 37.56738281 102.8605957 C37.82158997 103.56803421 38.07579712 104.27547272 38.33770752 105.00434875 C38.99094825 106.97272482 39.49699563 108.98798251 40 111 C-2.57 111 -45.14 111 -89 111 C-94.62847534 97.49165919 -94.62847534 97.49165919 -96.40356445 92.65234375 C-96.80360184 91.56501953 -97.20363922 90.47769531 -97.61579895 89.35742188 C-98.23330269 87.66456055 -98.23330269 87.66456055 -98.86328125 85.9375 C-99.30012741 84.74318359 -99.73697357 83.54886719 -100.1870575 82.31835938 C-101.1002395 79.81807533 -102.01213409 77.31736304 -102.92211914 74.81591797 C-104.08706459 71.61496209 -105.26055444 68.41720846 -106.4360323 65.22010803 C-107.56331681 62.14881681 -108.68146728 59.07420321 -109.80078125 56 C-110.22257156 54.85523193 -110.64436188 53.71046387 -111.07893372 52.53100586 C-111.4632103 51.46889893 -111.84748688 50.40679199 -112.2434082 49.3125 C-112.75373344 47.91451172 -112.75373344 47.91451172 -113.27436829 46.48828125 C-114 44 -114 44 -114 40 C-112.77337646 39.55946289 -111.54675293 39.11892578 -110.28295898 38.66503906 C-84.73506276 29.4874942 -59.20050633 20.27405695 -33.6875 11 C-32.48197479 10.5620813 -31.27644958 10.1241626 -30.03439331 9.67297363 C-26.60983053 8.42874266 -23.18569529 7.1833432 -19.76171875 5.9375 C-18.2337265 5.38240753 -18.2337265 5.38240753 -16.67486572 4.81610107 C-15.73374939 4.47331116 -14.79263306 4.13052124 -13.82299805 3.77734375 C-13.00784225 3.48077881 -12.19268646 3.18421387 -11.35282898 2.87866211 C-9.70013649 2.26146541 -8.06602846 1.59327992 -6.44856262 0.88891602 C-4 0 -4 0 0 0 Z " fill="#DF7A00" transform="translate(295,92)"/>
<path d="M0 0 C1.19343379 2.62240122 2.19313621 5.15485377 3.13671875 7.8671875 C3.56317436 9.05297897 3.56317436 9.05297897 3.99824524 10.26272583 C4.59782914 11.9370282 5.19177117 13.61336 5.78051758 15.29150391 C6.6828583 17.86177834 7.60251663 20.42531706 8.52539062 22.98828125 C9.10519756 24.61421608 9.68400707 26.24050702 10.26171875 27.8671875 C10.53666672 28.63602264 10.81161469 29.40485779 11.09489441 30.19699097 C12.16197812 33.25146851 13 35.73983562 13 39 C8.61313225 38.47952417 4.32974798 37.88099868 0 37 C1.88332105 42.11904746 3.76730745 47.23784943 5.65185547 52.35644531 C6.29004988 54.09010538 6.92807656 55.82382721 7.56591797 57.55761719 C8.18561777 59.24202957 8.80555155 60.92635589 9.42572021 62.6105957 C10.04264017 64.28602812 10.65905512 65.96164658 11.27496338 67.63745117 C12.76065616 71.67217803 14.26141247 75.69988673 15.79980469 79.71484375 C16.08036713 80.45009277 16.36092957 81.1853418 16.6499939 81.94287109 C17.17631084 83.31854828 17.70669531 84.69267876 18.24185181 86.06494141 C19.31647344 88.87787368 20 90.95751121 20 94 C-1.12 94 -22.24 94 -44 94 C-49.62847534 80.49165919 -49.62847534 80.49165919 -51.40356445 75.65234375 C-51.80360184 74.56501953 -52.20363922 73.47769531 -52.61579895 72.35742188 C-53.23330269 70.66456055 -53.23330269 70.66456055 -53.86328125 68.9375 C-54.30012741 67.74318359 -54.73697357 66.54886719 -55.1870575 65.31835938 C-56.1002395 62.81807533 -57.01213409 60.31736304 -57.92211914 57.81591797 C-59.08706459 54.61496209 -60.26055444 51.41720846 -61.4360323 48.22010803 C-62.56331681 45.14881681 -63.68146728 42.07420321 -64.80078125 39 C-65.22257156 37.85523193 -65.64436188 36.71046387 -66.07893372 35.53100586 C-66.4632103 34.46889893 -66.84748688 33.40679199 -67.2434082 32.3125 C-67.75373344 30.91451172 -67.75373344 30.91451172 -68.27436829 29.48828125 C-69 27 -69 27 -69 23 C-68.40912598 22.7878183 -67.81825195 22.5756366 -67.20947266 22.35702515 C-60.97803341 20.1190772 -54.74716387 17.87954836 -48.51660156 15.63916016 C-46.20098782 14.80673528 -43.8852361 13.97469409 -41.56933594 13.14306641 C-38.21251358 11.9375697 -34.85622535 10.73059518 -31.5 9.5234375 C-30.41275635 9.13339539 -29.3255127 8.74335327 -28.20532227 8.3414917 C-23.42166099 6.61990132 -18.6491326 4.88147393 -13.91015625 3.04003906 C-13.16378906 2.75125885 -12.41742188 2.46247864 -11.6484375 2.16494751 C-9.72186325 1.41370419 -7.80014774 0.6500323 -5.87890625 -0.11474609 C-3 -1 -3 -1 0 0 Z " fill="#FA9F4B" transform="translate(250,109)"/>
<path d="M0 0 C42.9 0 85.8 0 130 0 C130 9.9 130 19.8 130 30 C123.9821127 30.20707259 117.97662528 30.38598027 111.95800781 30.49438477 C109.91298509 30.53956701 107.86825188 30.60092981 105.82421875 30.67895508 C102.87948281 30.78852332 99.93859387 30.83924086 96.9921875 30.87890625 C96.0825827 30.92535782 95.17297791 30.97180939 94.23580933 31.01966858 C91.54380607 31.02179536 89.53501546 30.9186265 87 30 C85.00584581 27.86003448 83.65699673 25.75420063 82.27249146 23.18199158 C79.89478022 19.10483581 76.41464368 17.47154789 72 16 C64.99979389 15.2740527 59.41241321 15.31406789 53.6171875 19.5703125 C50.07836062 22.69884061 48.10660612 25.78678777 46 30 C21.91 30 -2.18 30 -27 30 C-27 29.67 -27 29.34 -27 29 C-18.09 29 -9.18 29 0 29 C0 19.43 0 9.86 0 0 Z " fill="#DFE5EC" transform="translate(270,374)"/>
<path d="M0 0 C19.8 0 39.6 0 60 0 C64.375 25.375 64.375 25.375 65.74365234 33.32568359 C66.10764253 35.43328634 66.47173114 37.5408721 66.8359375 39.6484375 C67.11207886 41.25585815 67.11207886 41.25585815 67.39379883 42.89575195 C68.38157382 48.6039139 69.43232319 54.28882311 70.61950684 59.95910645 C71.31382391 63.68329226 71.12165677 67.22864007 71 71 C66.22831526 67.01650452 61.71684532 62.8617285 57.33032227 58.4597168 C56.70507156 57.83621841 56.07982086 57.21272003 55.43562317 56.57032776 C53.39338107 54.53244661 51.35477043 52.49097817 49.31640625 50.44921875 C47.89166116 49.02514784 46.46676769 47.60122536 45.04173279 46.17744446 C42.0689192 43.20609959 39.09790832 40.23296712 36.12817383 37.25854492 C32.31257137 33.4372144 28.49245517 29.62043253 24.6710062 25.80494976 C21.73454037 22.87208533 18.80044538 19.93685845 15.86707878 17.00089455 C14.45832758 15.59147452 13.04882837 14.18280176 11.63858223 12.77487755 C9.67793815 10.81675642 7.72049983 8.85548758 5.76391602 6.89331055 C5.17646606 6.30788483 4.58901611 5.72245911 3.98376465 5.11929321 C0 1.11426866 0 1.11426866 0 0 Z " fill="#6BBF49" transform="translate(65,172)"/>
<path d="M0 0 C6.10805101 5.04859223 11.6627216 10.54993278 17.23828125 16.17578125 C18.20968106 17.15159496 19.18138136 18.12710962 20.15336609 19.1023407 C23.20925864 22.16956713 26.26115467 25.24075075 29.3125 28.3125 C32.86811037 31.89173753 36.42535404 35.46932067 39.98680687 39.04274559 C41.40808406 40.47050336 42.82631913 41.90123657 44.24446106 43.33210754 C45.10262924 44.19357895 45.96079742 45.05505035 46.8449707 45.94262695 C47.60107132 46.70396439 48.35717194 47.46530182 49.13618469 48.24971008 C50.89051883 50.06454556 50.89051883 50.06454556 53 51 C53.99 53.97 54.98 56.94 56 60 C40.82 60 25.64 60 10 60 C6.87573964 42.31952663 6.87573964 42.31952663 5.6015625 35.0859375 C4.64088886 29.63230017 3.67751291 24.17915775 2.7109375 18.7265625 C2.34880268 16.67190243 1.98681144 14.61721704 1.625 12.5625 C1.45774414 11.62398193 1.29048828 10.68546387 1.11816406 9.71850586 C0.96831055 8.86393799 0.81845703 8.00937012 0.6640625 7.12890625 C0.53467285 6.39744385 0.4052832 5.66598145 0.27197266 4.91235352 C0 3 0 3 0 0 Z " fill="#6ABF48" transform="translate(150,143)"/>
<path d="M0 0 C5.95290375 2.67765748 9.8570675 7.17204579 13.0234375 12.78515625 C14.85943621 20.31275098 13.46979788 26.68534283 9.6484375 33.34765625 C5.83969491 37.64243327 1.47895768 40.99196919 -4.3046875 41.71875 C-11.70924309 41.86789389 -16.75430539 41.41436767 -22.3515625 36.34765625 C-27.1800909 31.61817458 -29.40821556 27.26151891 -29.7265625 20.53515625 C-29.57310601 14.46008463 -27.89014157 9.99814484 -23.66796875 5.58984375 C-16.58916064 -0.71257895 -9.41579607 -2.61202316 0 0 Z " fill="#343A40" transform="translate(344.3515625,389.65234375)"/>
<path d="M0 0 C5.13309272 3.18873941 9.35540522 7.13170444 11.3203125 12.94140625 C12.25854274 19.63467375 12.2490448 26.28475752 8.7265625 32.22265625 C5.22865877 36.49787192 0.83770335 39.98906111 -4.6796875 40.94140625 C-10.63614019 41.49782832 -16.02820296 41.72708808 -21.1171875 38.27734375 C-26.26966549 33.87197507 -30.07456881 29.20271576 -31.05078125 22.328125 C-31.21893461 15.49318551 -30.22339262 11.13097469 -25.6796875 5.94140625 C-18.60001429 -1.15375858 -9.82046634 -3.87951367 0 0 Z " fill="#555B65" transform="translate(231.6796875,390.05859375)"/>
<path d="M0 0 C1.60078163 4.31765213 3.18510212 8.64086237 4.75463867 12.9699707 C5.29054603 14.4410032 5.83087111 15.91043425 6.37573242 17.37817383 C7.15938051 19.49151884 7.92681887 21.61016506 8.69140625 23.73046875 C8.93717911 24.38274948 9.18295197 25.03503021 9.43617249 25.70707703 C10.79128513 29.52239853 11.31327606 32.12892973 10 36 C8.37109375 38.45703125 8.37109375 38.45703125 6.4375 40.8125 C5.79683594 41.60269531 5.15617187 42.39289063 4.49609375 43.20703125 C4.00238281 43.79871094 3.50867188 44.39039063 3 45 C0.17205363 42.17205363 -0.69846037 38.73475673 -2.00390625 35.03515625 C-2.28725327 34.24604355 -2.57060028 33.45693085 -2.86253357 32.64390564 C-3.76783364 30.11863434 -4.66520623 27.59062581 -5.5625 25.0625 C-6.17071334 23.36244744 -6.77943127 21.66257532 -7.38867188 19.96289062 C-11.61204854 8.16385438 -11.61204854 8.16385438 -13 4 C-11.2097939 3.32942113 -9.41778511 2.6636531 -7.625 2 C-6.62726563 1.62875 -5.62953125 1.2575 -4.6015625 0.875 C-2 0 -2 0 0 0 Z " fill="#FCDD54" transform="translate(238,112)"/>
<path d="M0 0 C1.19343379 2.62240122 2.19313621 5.15485377 3.13671875 7.8671875 C3.42102249 8.65771515 3.70532623 9.4482428 3.99824524 10.26272583 C4.59782914 11.9370282 5.19177117 13.61336 5.78051758 15.29150391 C6.6828583 17.86177834 7.60251663 20.42531706 8.52539062 22.98828125 C9.10519756 24.61421608 9.68400707 26.24050702 10.26171875 27.8671875 C10.53666672 28.63602264 10.81161469 29.40485779 11.09489441 30.19699097 C12.16197812 33.25146851 13 35.73983562 13 39 C3.40144851 38.0070464 3.40144851 38.0070464 -1 36 C-2.70678711 33.08251953 -2.70678711 33.08251953 -4.02734375 29.3828125 C-4.26538223 28.72924774 -4.50342072 28.07568298 -4.74867249 27.40231323 C-5.24589573 26.02261978 -5.73188684 24.63883311 -6.20727539 23.25146484 C-6.935759 21.13006992 -7.69983061 19.02428262 -8.47070312 16.91796875 C-12.55965555 5.45120745 -12.55965555 5.45120745 -11 2 C-9.2578125 0.91796875 -9.2578125 0.91796875 -7.125 0.1875 C-6.42632812 -0.06644531 -5.72765625 -0.32039063 -5.0078125 -0.58203125 C-3 -1 -3 -1 0 0 Z " fill="#FBBD4E" transform="translate(250,109)"/>
</svg>
